<svg width="35" height="32" viewBox="0 0 35 32" fill="none" xmlns="http://www.w3.org/2000/svg">
<path d="M31.4814 7.69593H30.7413C30.9687 7.14162 31.0906 6.55593 31.1019 5.96414C31.0621 4.55549 30.4131 3.21844 29.2968 2.24501C28.1805 1.27158 26.6875 0.740876 25.1438 0.768794C23.6269 0.798694 22.1466 1.20028 20.8581 1.93149C19.5695 2.6627 18.5201 3.69665 17.8196 4.92508C17.1191 3.69665 16.0697 2.6627 14.7812 1.93149C13.4926 1.20028 12.0124 0.798694 10.4954 0.768794C8.95178 0.740876 7.45876 1.27158 6.34243 2.24501C5.2261 3.21844 4.57717 4.55549 4.53737 5.96414C4.54859 6.55593 4.67051 7.14162 4.89789 7.69593H4.15788C3.65858 7.7392 3.17362 7.87237 2.73106 8.08775C2.28849 8.30313 1.8971 8.59644 1.5795 8.95072C1.26189 9.30501 1.02439 9.71324 0.880717 10.1518C0.737043 10.5904 0.690048 11.0506 0.742449 11.5059V17.7403C0.653808 18.5789 0.890034 19.4193 1.41004 20.1154C1.93005 20.8115 2.70094 21.3192 3.58864 21.5502V29.1181C3.64722 29.9036 4.03843 30.6375 4.67945 31.1643C5.32047 31.6912 6.16099 31.9697 7.02305 31.9409H28.6162C29.4907 31.9691 30.342 31.6811 30.9851 31.1395C31.6282 30.598 32.0111 29.8466 32.0506 29.0488V21.5502C32.9383 21.3192 33.7092 20.8115 34.2292 20.1154C34.7492 19.4193 34.9854 18.5789 34.8968 17.7403V11.5059C34.9492 11.0506 34.9022 10.5904 34.7585 10.1518C34.6148 9.71324 34.3773 9.30501 34.0597 8.95072C33.7421 8.59644 33.3507 8.30313 32.9082 8.08775C32.4656 7.87237 31.9807 7.7392 31.4814 7.69593ZM31.1019 11.5059V17.7403C31.1246 17.8548 31.1246 17.9721 31.1019 18.0866H19.7171V11.1595H31.1019C31.1246 11.274 31.1246 11.3913 31.1019 11.5059ZM25.1438 4.23236C25.6814 4.20377 26.2096 4.36942 26.6144 4.69348C27.0192 5.01755 27.268 5.474 27.3069 5.96414C27.268 6.45429 27.0192 6.91074 26.6144 7.23481C26.2096 7.55887 25.6814 7.72452 25.1438 7.69593H20.4761C20.8081 6.77076 21.4247 5.95229 22.2523 5.33816C23.08 4.72403 24.0837 4.34017 25.1438 4.23236ZM8.3323 5.96414C8.37127 5.474 8.62004 5.01755 9.02483 4.69348C9.42961 4.36942 9.95788 4.20377 10.4954 4.23236C11.5521 4.34331 12.5518 4.7286 13.3758 5.34252C14.1998 5.95644 14.8135 6.77321 15.1442 7.69593H10.4954C9.95788 7.72452 9.42961 7.55887 9.02483 7.23481C8.62004 6.91074 8.37127 6.45429 8.3323 5.96414ZM4.53737 11.5059C4.5146 11.3913 4.5146 11.274 4.53737 11.1595H15.9222V18.0866H4.53737C4.5146 17.9721 4.5146 17.8548 4.53737 17.7403V11.5059ZM7.38357 21.5502H15.9222V28.4773H7.38357V21.5502ZM19.7171 28.4773V21.5502H28.2557V28.4773H19.7171Z" fill="#71569D"/>
</svg>
