<svg width="1214" height="426" viewBox="0 0 1214 426" fill="none" xmlns="http://www.w3.org/2000/svg">
<path d="M25.5 118C336 138 274.8 332.7 436 339.5C637.5 348 503 148 688 83C873 18 984.5 47 1052 146C1119.5 245 990.5 431 799 423C607.5 415 606.02 210.837 706 131C842.5 22 1051 190 1188 26" stroke="#6750A4" stroke-width="5" stroke-dasharray="10 10"/>
<circle cx="1192.5" cy="21.5" r="21.5" fill="#6750A4"/>
<path d="M1185.3 31V11.4H1199.64V13.164H1187.35V19.576H1193.76C1196.07 19.576 1197.83 20.052 1199.02 21.004C1200.24 21.9373 1200.84 23.3187 1200.84 25.148C1200.84 27.0333 1200.19 28.48 1198.88 29.488C1197.6 30.496 1195.74 31 1193.31 31H1185.3ZM1187.35 29.348H1193.28C1195.09 29.348 1196.46 29.0027 1197.37 28.312C1198.31 27.6027 1198.77 26.576 1198.77 25.232C1198.77 22.5627 1196.94 21.228 1193.28 21.228H1187.35V29.348Z" fill="white"/>
<circle cx="21.5" cy="114.5" r="21.5" fill="#6750A4"/>
<path d="M11.42 124L20.38 104.4H22.424L31.384 124H29.2L20.968 105.604H21.808L13.576 124H11.42ZM14.948 118.764L15.564 117.084H26.96L27.576 118.764H14.948Z" fill="white"/>
</svg>
