<svg width="144" height="19" viewBox="0 0 144 19" fill="none" xmlns="http://www.w3.org/2000/svg">
<path d="M10 15.27L16.18 19L14.54 11.97L20 7.24L12.81 6.63L10 0L7.19 6.63L0 7.24L5.46 11.97L3.82 19L10 15.27Z" fill="#FEB100"/>
<path d="M41 15.27L47.18 19L45.54 11.97L51 7.24L43.81 6.63L41 0L38.19 6.63L31 7.24L36.46 11.97L34.82 19L41 15.27Z" fill="#FEB100"/>
<path d="M72 15.27L78.18 19L76.54 11.97L82 7.24L74.81 6.63L72 0L69.19 6.63L62 7.24L67.46 11.97L65.82 19L72 15.27Z" fill="#FEB100"/>
<path d="M103 15.27L109.18 19L107.54 11.97L113 7.24L105.81 6.63L103 0L100.19 6.63L93 7.24L98.46 11.97L96.82 19L103 15.27Z" fill="#FEB100"/>
<path d="M134 15.27L140.18 19L138.54 11.97L144 7.24L136.81 6.63L134 0L131.19 6.63L124 7.24L129.46 11.97L127.82 19L134 15.27Z" fill="#FEB100"/>
</svg>
