<svg width="58" height="49" viewBox="0 0 58 49" fill="none" xmlns="http://www.w3.org/2000/svg">
<path d="M44.2827 13.0876L44.9923 13.7922C45.3554 13.4265 45.3811 12.8447 45.0517 12.4484C44.7223 12.0521 44.1456 11.971 43.7197 12.2612L44.2827 13.0876ZM21.9855 28.2782L21.4225 27.4517L21.2062 27.5991L21.0899 27.8335L21.9855 28.2782ZM52.1523 45.4498L53.1388 45.6131L52.1523 45.4498ZM43.7197 12.2612L21.4225 27.4517L22.5486 29.1046L44.8457 13.9141L43.7197 12.2612ZM21.0899 27.8335C21.1612 27.6897 21.2414 27.6428 21.1809 27.692C21.1444 27.7217 21.0736 27.7719 20.9587 27.8405C20.731 27.9763 20.4021 28.1418 19.9954 28.3191C19.1846 28.6728 18.1436 29.0397 17.1508 29.2896L17.6391 31.2291C18.7449 30.9507 19.8898 30.5472 20.795 30.1524C21.2464 29.9555 21.658 29.7522 21.9836 29.5579C22.1453 29.4614 22.3044 29.3561 22.4423 29.2441C22.5562 29.1515 22.7552 28.9767 22.8812 28.7228L21.0899 27.8335ZM17.1508 29.2896C16.9895 29.3303 16.6243 29.3539 16.0152 29.3063C15.4348 29.261 14.719 29.1589 13.9099 29.008C12.2934 28.7065 10.363 28.2211 8.50683 27.6522C6.64601 27.0818 4.895 26.4383 3.62578 25.8287C2.98581 25.5213 2.51057 25.2424 2.21058 25.0092C2.06014 24.8923 1.98757 24.8126 1.96024 24.7755C1.92935 24.7336 2 24.8077 2 24.9758H0C0 25.3915 0.178244 25.7287 0.350369 25.9622C0.526052 26.2006 0.751926 26.4085 0.983179 26.5883C1.44658 26.9485 2.06775 27.2991 2.75987 27.6315C4.15483 28.3015 6.01072 28.9789 7.92073 29.5644C9.83538 30.1512 11.8398 30.6564 13.5432 30.9741C14.3941 31.1328 15.1847 31.2475 15.8595 31.3002C16.5056 31.3507 17.1447 31.3536 17.6391 31.2291L17.1508 29.2896ZM2 24.9758C2 25.2025 1.91403 25.3494 1.8962 25.3792C1.87066 25.422 1.85567 25.4337 1.87694 25.4111C1.91877 25.3666 2.01329 25.2811 2.18529 25.1512C2.52278 24.8963 3.04496 24.5551 3.74651 24.1347C5.14235 23.2983 7.15691 22.2029 9.60417 20.9423C14.4938 18.4236 21.0562 15.2733 27.725 12.2655C34.3961 9.25662 41.1549 6.39875 46.4407 4.4602C49.0878 3.4894 51.3388 2.75908 53.0141 2.35323C53.8555 2.14937 54.5149 2.0366 54.9893 2.00749C55.2266 1.99293 55.3857 2.00152 55.482 2.01698C55.5895 2.03425 55.5469 2.04847 55.4596 1.97819L56.7145 0.4208C56.4223 0.185399 56.0799 0.087378 55.7991 0.042282C55.507 -0.00462651 55.1891 -0.00853372 54.8668 0.0112445C54.222 0.0508127 53.4321 0.194083 52.5431 0.409454C50.7575 0.842046 48.4231 1.6029 45.7521 2.58249C40.4017 4.54472 33.5936 7.42453 26.9028 10.4423C20.2097 13.4611 13.6151 16.6264 8.68831 19.1643C6.22734 20.432 4.16877 21.5502 2.71855 22.4191C1.99707 22.8514 1.40298 23.2357 0.979967 23.5552C0.771714 23.7125 0.574925 23.8763 0.420501 24.0404C0.343644 24.1221 0.254298 24.2278 0.178924 24.3541C0.111268 24.4674 0 24.6871 0 24.9758H2ZM55.4596 1.97819C55.431 1.95508 55.5227 2.02452 55.636 2.38679C55.7401 2.71966 55.8285 3.18828 55.8916 3.79958C56.0175 5.01874 56.0299 6.66581 55.9486 8.62957C55.7865 12.5486 55.2581 17.5919 54.6033 22.7023C53.2946 32.9166 51.495 43.2966 51.1657 45.2865L53.1388 45.6131C53.4653 43.6403 55.2726 33.2161 56.5871 22.9564C57.2439 17.8298 57.7812 12.7186 57.9469 8.71225C58.0296 6.71329 58.0215 4.95489 57.881 3.59414C57.8109 2.9155 57.7046 2.30055 57.5448 1.78978C57.3943 1.30841 57.153 0.77415 56.7145 0.4208L55.4596 1.97819ZM27.5761 34.8826C27.5761 34.946 27.5635 34.9127 27.6377 34.7285C27.703 34.5665 27.8096 34.3499 27.9647 34.0764C28.2743 33.5305 28.7357 32.8295 29.3264 32.0027C30.5051 30.3531 32.1477 28.2731 33.9854 26.0605C37.6606 21.6354 42.0671 16.7381 44.9923 13.7922L43.5731 12.383C40.596 15.3812 36.1493 20.3247 32.4468 24.7827C30.5956 27.0116 28.9183 29.1337 27.6991 30.84C27.091 31.6912 26.5841 32.4566 26.225 33.0898C26.0458 33.4057 25.8931 33.7068 25.7826 33.9811C25.681 34.2332 25.5761 34.5549 25.5761 34.8826H27.5761ZM51.1657 45.2865C51.0325 46.0913 50.678 46.4966 50.2037 46.7259C49.6615 46.988 48.8301 47.0804 47.6837 46.9226C45.3994 46.6081 42.3751 45.3754 39.297 43.7191C36.2412 42.0748 33.2293 40.0661 30.992 38.2868C29.871 37.3953 28.9668 36.5789 28.3529 35.9096C28.0447 35.5736 27.8301 35.2966 27.6985 35.0834C27.5491 34.8414 27.5761 34.7924 27.5761 34.8826H25.5761C25.5761 35.3608 25.7917 35.802 25.9966 36.1339C26.2192 36.4945 26.5244 36.8749 26.879 37.2615C27.5905 38.0372 28.5829 38.9262 29.7471 39.8521C32.0798 41.7073 35.1914 43.7811 38.3493 45.4803C41.4849 47.1675 44.7644 48.5395 47.4109 48.9039C48.7299 49.0855 50.0206 49.036 51.0744 48.5264C52.1961 47.984 52.9113 46.9878 53.1388 45.6131L51.1657 45.2865Z" fill="white"/>
</svg>
