<svg xmlns="http://www.w3.org/2000/svg" width="48" height="48" viewBox="0 0 48 48" fill="none"> <path d="M31.1927 25.5859V15.7573C31.1927 14.3581 30.0665 13.2319 28.6673 13.2319H19.7261C18.3269 13.2319 17.2007 14.3581 17.2007 15.7573V25.5859H31.1927Z" fill="white"/> <path d="M17.2007 28.0088V31.3703C17.2007 32.7695 18.3269 33.8957 19.7261 33.8957H28.6673C30.0665 33.8957 31.1927 32.7695 31.1927 31.3703V28.0088H17.2007ZM24.1626 31.8993C23.4971 31.8993 22.9511 31.3532 22.9511 30.6877C22.9511 30.0223 23.4971 29.4762 24.1626 29.4762C24.828 29.4762 25.3741 30.0223 25.3741 30.6877C25.3741 31.3532 24.828 31.8993 24.1626 31.8993Z" fill="white"/> <circle cx="23.8167" cy="23.8167" r="22.3167" stroke="white" stroke-width="3"/> </svg>