<?xml version="1.0" standalone="no"?>
<!DOCTYPE svg PUBLIC "-//W3C//DTD SVG 20010904//EN"
 "http://www.w3.org/TR/2001/REC-SVG-20010904/DTD/svg10.dtd">
<svg version="1.0" xmlns="http://www.w3.org/2000/svg"
 width="1245.000000pt" height="1245.000000pt" viewBox="0 0 1245.000000 1245.000000"
 preserveAspectRatio="xMidYMid meet">
<metadata>
Created by potrace 1.14, written by Peter Selinger 2001-2017
</metadata>
<g transform="translate(0.000000,1245.000000) scale(0.100000,-0.100000)"
fill="#000000" stroke="none">
<path d="M9189 12068 c-1 -2 -2 -292 -3 -645 -1 -564 1 -642 14 -645 8 -2 299
-3 645 -3 l630 1 3 647 2 647 -645 0 c-355 0 -646 -1 -646 -2z"/>
<path d="M1972 5417 l3 -3772 683 0 c376 0 686 4 689 8 4 6 7 6958 3 7464 l0
72 -690 0 -690 -1 2 -3771z"/>
<path d="M6435 9179 c-563 -48 -1075 -276 -1474 -655 -418 -398 -668 -890
-746 -1469 -18 -142 -13 -518 9 -655 30 -184 108 -464 152 -548 8 -15 14 -30
14 -34 0 -32 149 -303 234 -428 235 -344 587 -645 961 -821 55 -26 143 -63
196 -82 98 -37 331 -101 404 -112 22 -3 47 -7 55 -10 74 -21 483 -36 595 -21
22 2 67 8 100 11 141 15 377 73 532 131 856 317 1468 1098 1571 2003 9 83 9
467 0 541 -33 272 -112 545 -221 771 -33 69 -39 89 -27 90 8 0 392 1 853 1
l837 1 0 648 0 648 -1982 -2 c-1091 0 -2019 -4 -2063 -8z m360 -1300 c439 -59
817 -404 930 -846 32 -130 39 -325 15 -463 -73 -428 -395 -784 -811 -898 -395
-108 -810 0 -1100 288 -267 266 -384 642 -315 1013 93 493 519 878 1011 914
44 3 81 6 82 8 5 3 109 -5 188 -16z"/>
<path d="M4205 4037 c46 -496 212 -917 513 -1307 85 -109 293 -317 402 -401
394 -304 796 -463 1300 -514 56 -6 376 -6 410 -1 14 2 50 7 80 11 261 31 549
114 758 219 39 20 75 36 80 36 4 0 8 -381 8 -847 l0 -848 647 -3 647 -2 0
1865 0 1865 -650 -1 -649 0 -6 -37 c-93 -561 -540 -955 -1095 -967 -388 -9
-730 166 -959 488 -86 121 -167 327 -186 469 l-6 47 -651 0 -650 0 7 -72z"/>
</g>
</svg>
