<svg width="556" height="273" viewBox="0 0 556 273" fill="none" xmlns="http://www.w3.org/2000/svg">
<path d="M22.0594 85.0656C19.8464 85.2592 17.8861 83.5162 17.6811 81.1728C17.4761 78.8293 19.104 76.7724 21.3169 76.5788C23.5299 76.3852 25.4902 78.1281 25.6952 80.4716C25.9005 82.8151 24.2726 84.8719 22.0594 85.0656ZM58.9076 37.5261C60.2782 35.7443 61.07 33.378 61.1368 30.8631C61.1377 30.8279 61.135 30.7935 61.1347 30.7587C61.2309 28.4905 62.4452 26.8534 63.4949 26.8958C65.0362 26.958 66.321 25.6867 66.3644 24.0567C66.4066 22.4281 65.1935 21.0543 63.6524 20.9921C59.2566 20.8147 55.6963 25.0513 55.5472 30.6373C55.5464 30.6685 55.5498 30.6986 55.55 30.7295C55.5021 31.9071 55.1462 33.0111 54.5629 33.7693C54.3148 34.0919 53.806 34.6296 53.1889 34.6049C52.5723 34.5801 52.0935 34.0022 51.863 33.6602C51.3074 32.8355 51.0069 31.6677 51.0395 30.4552C51.1071 27.9397 50.4429 25.5151 49.1701 23.6267C47.7528 21.5232 45.6735 20.2657 43.4662 20.1764C39.0702 19.9988 35.5102 24.2353 35.3608 29.8214C35.3574 29.9429 35.3612 30.063 35.3716 30.1813C35.4999 31.6489 36.6464 32.8285 38.0726 32.886C39.614 32.9485 40.8987 31.6771 40.9422 30.0471C41.0041 27.7244 42.2427 26.0368 43.3084 26.0799C43.9253 26.1049 44.4041 26.6825 44.6347 27.0248C45.1902 27.8492 45.4908 29.0175 45.4581 30.2295C45.4447 30.7239 45.46 31.2144 45.5023 31.6984C45.6754 33.6769 46.3047 35.5408 47.3275 37.058C48.7449 39.1617 50.8241 40.419 53.0314 40.5083C55.2392 40.5976 57.381 39.5107 58.9076 37.5261ZM9.78192 129.823C10.7426 131.109 12.4991 131.338 13.7051 130.334C27.0486 119.225 37.7246 125.913 44.1031 129.909C44.8787 130.395 45.6116 130.854 46.2651 131.223C47.6306 131.995 49.3182 131.456 50.0343 130.019C50.7505 128.582 50.2241 126.791 48.8587 126.019C48.3141 125.711 47.6646 125.304 46.9121 124.833C40.3048 120.694 26.556 112.08 10.2251 125.677C9.86235 125.979 9.57727 126.372 9.39569 126.822C9.2141 127.271 9.14173 127.762 9.18512 128.251C9.23497 128.824 9.44247 129.371 9.78192 129.823Z" fill="#FEB100"/>
<path d="M487.027 23.5133C487.027 25.6513 488.775 27.3843 490.931 27.3843C493.088 27.3843 494.836 25.6513 494.836 23.5133C494.836 21.3753 493.088 19.6423 490.931 19.6423C488.775 19.6423 487.027 21.3753 487.027 23.5133ZM403.79 17C405.883 17 407.58 18.6826 407.58 20.7577C407.58 22.8329 405.883 24.5155 403.79 24.5155C401.697 24.5155 400 22.8329 400 20.7577C400 18.6826 401.697 17 403.79 17ZM512.482 73.8024C511.893 73.1703 511.187 72.4602 510.439 71.7083C506.644 67.8922 501.448 62.6666 499.199 55.5198C496.498 46.9342 498.817 37.81 506.093 28.4003C507.356 26.7667 509.715 26.4587 511.362 27.7102C513.009 28.9623 513.321 31.3008 512.058 32.9341C506.275 40.4133 504.415 47.0754 506.374 53.3004C508.08 58.7214 512.356 63.0215 515.791 66.4765C516.583 67.2729 517.331 68.0248 518.003 68.746C519.411 70.2577 519.316 72.6149 517.792 74.0109C517.099 74.6479 516.188 75.0012 515.243 75C514.724 75.0008 514.211 74.8948 513.735 74.6886C513.26 74.4825 512.833 74.1807 512.482 73.8024Z" fill="#FE7575"/>
<path d="M224.935 244.45C224.43 246.334 225.559 248.273 227.456 248.781C229.353 249.289 231.3 248.174 231.805 246.29C232.31 244.407 231.181 242.467 229.284 241.959C227.387 241.45 225.44 242.566 224.935 244.45ZM269.818 219.345C271.498 218.414 273.57 218.064 275.65 218.362C275.679 218.366 275.707 218.373 275.736 218.379C277.618 218.616 279.155 217.799 279.284 216.886C279.473 215.546 280.72 214.616 282.069 214.809C283.416 215.003 284.357 216.245 284.168 217.585C283.628 221.406 279.585 223.882 274.964 223.221C274.938 223.218 274.913 223.21 274.888 223.206C273.911 223.081 272.947 223.232 272.232 223.629C271.928 223.797 271.406 224.161 271.33 224.697C271.254 225.233 271.655 225.728 271.9 225.976C272.492 226.572 273.407 226.997 274.41 227.14C276.491 227.437 278.383 228.354 279.739 229.72C281.249 231.241 281.96 233.215 281.689 235.133C281.149 238.955 277.106 241.431 272.484 240.77C272.384 240.756 272.286 240.736 272.19 240.71C271.002 240.392 270.21 239.235 270.385 237.995C270.574 236.655 271.821 235.725 273.17 235.918C275.091 236.193 276.674 235.362 276.805 234.435C276.88 233.899 276.48 233.404 276.234 233.156C275.642 232.56 274.727 232.135 273.724 231.992C273.315 231.934 272.914 231.851 272.522 231.747C270.921 231.317 269.485 230.51 268.395 229.413C266.885 227.891 266.175 225.918 266.446 223.999C266.717 222.08 267.946 220.383 269.818 219.345ZM186.177 248.727C185.268 247.715 185.354 246.166 186.369 245.267C197.596 235.313 193.757 225.147 191.464 219.074C191.185 218.335 190.921 217.637 190.719 217.021C190.297 215.732 191.004 214.351 192.299 213.936C193.593 213.52 194.985 214.228 195.408 215.517C195.576 216.03 195.81 216.649 196.08 217.365C198.456 223.657 203.4 236.748 189.659 248.93C189.354 249.201 188.986 249.391 188.588 249.485C188.189 249.578 187.773 249.571 187.378 249.465C186.914 249.34 186.496 249.084 186.177 248.727Z" fill="#FF7475"/>
<circle cx="445" cy="245" r="10" fill="#FEB100"/>
<circle cx="28" cy="226" r="10" fill="#6750A4"/>
<path d="M469.704 256.679C469.704 259.617 467.308 262 464.352 262C461.396 262 459 259.617 459 256.679C459 253.74 461.396 251.357 464.352 251.357C467.308 251.357 469.704 253.739 469.704 256.679ZM553.165 178.814C551.21 176.822 548.467 175.48 545.439 175.035C543.673 174.775 542.023 175.99 541.761 177.75C541.5 179.51 542.722 181.148 544.492 181.408C546.101 181.644 547.572 182.338 548.528 183.312C548.956 183.749 549.652 184.632 549.502 185.64C549.352 186.648 548.429 187.292 547.892 187.587C546.694 188.245 545.084 188.485 543.475 188.249C536.899 187.284 530.895 190.889 530.091 196.289C529.288 201.689 533.986 206.869 540.563 207.836C540.597 207.841 540.631 207.839 540.665 207.843C543.857 208.351 545.812 210.456 545.574 212.057C545.425 213.065 544.501 213.71 543.964 214.004C542.766 214.662 541.157 214.904 539.547 214.667C532.972 213.701 526.967 217.307 526.163 222.707C525.361 228.106 530.058 233.286 536.635 234.253C536.795 234.276 536.955 234.288 537.113 234.288C538.692 234.288 540.075 233.138 540.313 231.538C540.575 229.778 539.352 228.141 537.582 227.881C534.33 227.403 532.332 225.267 532.572 223.649C532.813 222.031 535.346 220.559 538.6 221.039C539.324 221.146 540.049 221.198 540.765 221.198C543.039 221.198 545.23 220.667 547.094 219.644C549.794 218.163 551.576 215.741 551.983 212.999C552.786 207.599 548.089 202.419 541.512 201.452C541.468 201.446 541.426 201.445 541.382 201.44C538.207 200.925 536.263 198.828 536.5 197.232C536.74 195.613 539.275 194.142 542.527 194.622C543.252 194.728 543.976 194.781 544.692 194.781C546.967 194.781 549.158 194.25 551.022 193.227C553.721 191.746 555.503 189.324 555.911 186.582C556.318 183.839 555.318 181.008 553.165 178.814Z" fill="#FEB100"/>
<path d="M293.453 43.4356C293.453 45.3858 291.861 46.967 289.897 46.967C287.933 46.967 286.341 45.3858 286.341 43.4356C286.341 41.4853 287.933 39.9041 289.897 39.9041C291.861 39.9039 293.453 41.485 293.453 43.4356ZM256.597 7.57022C255.215 6.23519 253.305 5.36161 251.218 5.1107C251.189 5.10721 251.16 5.107 251.131 5.1046C249.252 4.84693 247.979 3.6596 248.09 2.74479C248.254 1.40147 247.29 0.180544 245.938 0.0177832C244.586 -0.143668 243.356 0.81217 243.192 2.15527C242.724 5.98625 245.989 9.42429 250.624 9.98217C250.649 9.98523 250.675 9.98457 250.7 9.98675C251.676 10.1187 252.569 10.5145 253.157 11.0827C253.407 11.3244 253.817 11.8105 253.752 12.3483C253.686 12.8857 253.171 13.2603 252.87 13.4357C252.143 13.8585 251.15 14.032 250.144 13.9107C248.057 13.6591 245.992 14.0545 244.329 15.0232C242.477 16.1018 241.279 17.8241 241.045 19.7478C240.577 23.579 243.841 27.0168 248.476 27.5749C248.577 27.5871 248.677 27.593 248.776 27.593C250.006 27.593 251.071 26.6806 251.222 25.4376C251.386 24.0943 250.423 22.8734 249.07 22.7106C247.143 22.4787 245.829 21.2663 245.943 20.3375C246.008 19.7999 246.524 19.4253 246.825 19.2499C247.551 18.8271 248.545 18.6536 249.55 18.7749C249.96 18.8245 250.37 18.8487 250.775 18.8487C252.433 18.8487 254.029 18.4409 255.365 17.6625C257.218 16.5838 258.415 14.8615 258.65 12.9378C258.885 11.0137 258.137 9.05732 256.597 7.57022ZM329.784 57.5983C330.923 56.8565 331.241 55.3378 330.494 54.2061C322.225 41.6858 328.565 32.8603 332.352 27.5874C332.813 26.9461 333.248 26.3403 333.602 25.797C334.344 24.6618 334.018 23.1446 332.875 22.4083C331.732 21.6719 330.204 21.9952 329.463 23.1304C329.167 23.5831 328.781 24.1201 328.335 24.7421C324.412 30.2042 316.248 41.5699 326.367 56.8934C326.592 57.2338 326.898 57.5132 327.259 57.7064C327.62 57.8996 328.023 58.0005 328.433 58C328.913 58.0002 329.383 57.8606 329.784 57.5983Z" fill="#6750A4"/>
</svg>
