<svg width="332" height="439" viewBox="0 0 332 439" fill="none" xmlns="http://www.w3.org/2000/svg">
<circle cx="10.4551" cy="10" r="10" fill="#6750A4"/>
<path d="M5.63508 14L9.47508 5.6H10.3511L14.1911 14H13.2551L9.72708 6.116H10.0871L6.55908 14H5.63508ZM7.14708 11.756L7.41108 11.036H12.2951L12.5591 11.756H7.14708Z" fill="white"/>
<circle cx="321.455" cy="429" r="10" fill="#6750A4"/>
<path d="M318.871 433V424.6H325.015V425.356H319.747V428.104H322.495C323.487 428.104 324.239 428.308 324.751 428.716C325.271 429.116 325.531 429.708 325.531 430.492C325.531 431.3 325.251 431.92 324.691 432.352C324.139 432.784 323.343 433 322.303 433H318.871ZM319.747 432.292H322.291C323.067 432.292 323.651 432.144 324.043 431.848C324.443 431.544 324.643 431.104 324.643 430.528C324.643 429.384 323.859 428.812 322.291 428.812H319.747V432.292Z" fill="white"/>
<path d="M321.955 420.5C331.578 319.771 145.029 306.249 148.301 253.955C152.391 188.586 56.1575 232.219 24.8816 172.204C-6.39426 112.188 7.55959 76.0169 55.1951 54.1194C102.831 32.2219 192.328 74.0705 188.478 136.195C184.629 198.319 86.3928 198.799 47.9776 166.364C-4.4696 122.083 87.8665 51.9438 8.95508 7.49999" stroke="#6750A4" stroke-opacity="0.3" stroke-width="3" stroke-dasharray="10 10"/>
</svg>
